<?xml version="1.0" encoding="UTF-8"?>
<svg width="163px" height="58px" viewBox="0 0 163 58" version="1.1" xmlns="http://www.w3.org/2000/svg" xmlns:xlink="http://www.w3.org/1999/xlink">
    <title>飞梭logo</title>
    <g id="飞梭-20230816✅" stroke="none" stroke-width="1" fill="none" fill-rule="evenodd">
        <g id="登录" transform="translate(-506.000000, -196.000000)">
            <g id="分组-7" transform="translate(394.000000, 152.000000)">
                <g id="飞梭logo" transform="translate(112.000000, 44.000000)">
                    <path d="M58.3491969,0.0901536771 C54.0290739,-0.212564324 48.3781544,-0.15310186 40.708469,6.97158253 C38.1940401,9.30683568 33.9371164,13.8890492 31.5418633,16.2252033 C30.2652376,17.4730141 28.8649219,18.4658571 26.9373435,19.39203 C23.5408331,21.0209412 20.029661,22.1525299 15.5524427,23.1949249 C15.5524427,23.1949249 20.608386,24.6364392 23.0271131,26.8978148 C23.0271131,26.8978148 30.0982109,19.897461 33.5461837,16.701804 C35.9603966,14.464754 44.4200731,7.57431569 48.9406281,8.51039904 L58.3491969,0.0901536771 Z" id="路径" fill="#02253B" fill-rule="nonzero"></path>
                    <path d="M58.3491969,0.0901536771 C58.3491969,0.0901536771 59.3603855,3.51825485 57.0527085,8.45273846 C57.0527085,8.45273846 53.9369835,15.0927137 42.1557328,23.4886335 C42.1557328,23.4886335 38.4414202,26.4473416 37.9240888,27.8239877 C37.9240888,27.8239877 32.8076548,39.5885462 31.8298715,40.3399356 C31.8298715,40.3399356 30.2209981,33.9098809 27.0267254,30.5709734 L24.5845242,33.134166 L22.7788302,31.2511879 L33.2879694,23.2552884 L27.9358923,29.5267765 C27.9358923,29.5267765 29.8490251,32.326017 29.9221558,32.6242303 C29.9221558,32.6242303 51.0821812,15.4476866 48.9370167,8.51490377 C49.1410602,8.04370878 58.3491969,0.0901536771 58.3491969,0.0901536771 Z" id="路径" fill="#02253B" fill-rule="nonzero"></path>
                    <path d="M0,52.9342657 C3.85335106,47.4312849 6.73885012,43.6184796 10.120915,39.6903532 C11.3217016,38.296589 18.6573336,29.5375878 21.6286031,32.8233395 C23.7132768,35.1288614 20.2192589,38.9497752 14.2496344,43.4400922 C10.3935748,46.3393378 6.049075,49.6413065 0,52.9342657 Z" id="路径" fill="#EE5B38" fill-rule="nonzero"></path>
                    <path d="M10.3899634,43.0824165 C12.3464329,40.2939873 13.8090451,38.3659619 15.5199402,36.3856817 C16.1266534,35.6838444 19.8391603,31.2656031 21.2981611,33.016142 C22.3201839,34.244132 20.5542151,36.1694545 17.5522488,38.3956932 C15.6066135,39.8354056 13.4235294,41.4751281 10.3899634,43.0824165 Z" id="路径" fill="#FBB03B" fill-rule="nonzero"></path>
                    <path d="M106.41019,23.6686443 C104.949465,22.2808306 102.154947,20.5077373 99.4107996,18.9262752 C99.114625,26.5229413 100.176421,30.7650519 103.146225,30.7267257 C103.87961,30.7267257 104.572699,28.2597255 105.255713,24.2092461 C106.337657,25.5587335 107.673465,27.0635431 108.88234,27.7957762 C107.401468,34.5069042 105.557932,36.6713287 102.128755,36.6713287 C93.2314302,36.6713287 92.6491551,25.4498063 94.7767763,8.09406682 L75.7470588,8.09406682 L76.5711091,2.23216783 L101.300675,2.23216783 C100.839288,5.23976982 100.440359,8.09406682 100.115977,10.6780629 C102.412868,8.71767448 104.575583,6.60497136 106.589506,4.35423175 L111.223529,7.05320657 C108.404498,9.74889804 105.437472,12.2850595 102.336279,14.6498726 C105.179151,16.0780297 108.211414,17.8127968 109.869589,19.1622842 L106.41019,23.6686443 Z" id="路径" fill="#02253B" fill-rule="nonzero"></path>
                    <path d="M124.543472,24.7147409 C124.331229,23.746568 123.995682,22.5474919 123.591409,21.3079064 L121.347692,37.3090909 L115.9749,37.3090909 L117.523267,26.2723245 C116.68142,27.8761246 115.704235,29.4048454 114.602392,30.8417767 C114.327487,29.2214036 113.494684,26.6207048 112.821569,25.0732484 C115.229016,22.5171099 117.575822,18.1866627 119.217172,14.1904175 L119.419308,12.7968967 L115.51605,12.7968967 L116.243742,7.60765176 L120.147,7.60765176 L121.141513,0.518519396 L126.514304,0.518519396 L125.519792,7.60765176 L128.956115,7.60765176 L128.228423,12.7968967 L124.7921,12.7968967 L124.612199,14.0749659 C125.622882,15.6953391 127.872662,19.7665265 128.375983,20.850151 L124.543472,24.7147409 Z M149.105095,22.0816346 C147.413653,25.3048268 145.071863,28.1404025 142.228406,30.4083269 C144.62676,31.3847571 147.140344,32.048464 149.707462,32.3831566 C148.468364,33.505265 146.685519,35.7515073 145.788032,37.1855375 C142.678638,36.5458669 139.704868,35.3661476 137.001153,33.6997098 C133.766967,35.2876755 130.128507,36.4482677 126.221206,37.2625052 C125.877574,35.8689843 124.978066,33.7381937 124.169519,32.6160853 C127.29253,32.1117442 130.261917,31.338016 132.885651,30.252366 C132.24881,29.5417168 131.657394,28.7914762 131.114934,28.0061238 C130.508524,28.471981 129.869772,28.897329 129.273469,29.2841931 C128.598333,28.3180456 127.009539,26.4201836 126.013005,25.5289784 C129.609016,23.5926325 133.6093,20.4167012 136.119837,17.3197631 L140.663869,19.1001481 C140.243425,19.6044892 139.782553,20.1452887 139.323703,20.6496298 L144.696495,20.6496298 L145.691007,20.4470832 L149.105095,22.0816346 Z M139.071032,13.979769 C136.183903,16.6810892 133.061231,19.1179993 129.740405,21.2613207 C129.103675,20.2931478 127.652334,18.2413503 126.734633,17.3501451 C129.396773,15.9951081 132.596596,13.9068522 134.672539,12.0049393 L139.071032,13.979769 Z M146.974574,12.7422091 C146.743298,12.0813886 146.473313,11.4348166 146.166028,10.8058632 C134.03783,11.8185964 132.002314,12.0434232 130.484268,12.6632159 C130.243094,11.0736825 129.922643,9.49724625 129.524119,7.93982825 C130.286174,7.73728161 131.058336,7.20255848 131.978058,6.42883032 C134.098553,4.51750011 135.983684,2.35927741 137.593413,0 L142.788325,1.54948179 C141.273241,3.36087322 139.639031,5.06877177 137.896618,6.66175896 L143.704004,6.31337874 C143.097594,5.38368967 142.52959,4.49045899 141.985842,3.68027243 L146.432848,1.47251407 C148.343039,4.10562037 150.847512,7.75145988 151.813725,10.2245543 L146.974574,12.7422091 Z M134.993936,24.8625999 C135.764795,25.9415495 136.683428,26.9063651 137.722781,27.7286349 C139.006345,26.8598006 140.185828,25.8457939 141.237937,24.706639 L135.173838,24.706639 L134.993936,24.8625999 Z M143.720175,11.4256559 C146.311566,13.046029 149.850979,15.6467279 151.603503,17.4655967 L147.039258,20.5260764 C145.555575,18.7031566 142.11521,15.9545988 139.473284,14.1357299 L143.720175,11.4256559 Z" id="形状" fill="#02253B" fill-rule="nonzero"></path>
                    <text id="柔性协作平台" font-family="PingFangSC-Light, PingFang SC" font-size="10.24" font-weight="300" letter-spacing="3.84000015" fill="#02253B">
                        <tspan x="69.9941176" y="54.0244755">柔性协作平台</tspan>
                    </text>
                </g>
            </g>
        </g>
    </g>
</svg>