<?xml version="1.0" encoding="UTF-8"?>
<svg width="184px" height="166px" viewBox="0 0 184 166" version="1.1" xmlns="http://www.w3.org/2000/svg" xmlns:xlink="http://www.w3.org/1999/xlink">
    <title>logo</title>
    <g id="飞梭官网-20230819✅" stroke="none" stroke-width="1" fill="none" fill-rule="evenodd">
        <g id="官网" transform="translate(-519.000000, -241.000000)" fill-rule="nonzero">
            <g id="资源-11-8111备份" transform="translate(519.000000, 241.000000)">
                <g id="logo-2" transform="translate(0.000000, 0.000000)">
                    <g id="logo" transform="translate(0.000000, 0.000000)">
                        <path d="M182.564972,0.282718768 C169.048023,-0.666594263 151.367232,-0.48012206 127.370056,21.8626382 C119.502825,29.1859101 106.183616,43.5555711 98.6892655,50.8816684 C94.6949153,54.7947593 90.3135593,57.90828 84.2824859,60.8127258 C73.6553672,65.920934 62.6694915,69.4695565 48.6610169,72.7384708 C48.6610169,72.7384708 64.480226,77.259009 72.0480226,84.3506034 C72.0480226,84.3506034 94.1723164,62.3977395 104.960452,52.3762713 C112.514124,45.360961 138.983051,23.7527882 153.127119,26.6883128 L182.564972,0.282718768 Z" id="路径" fill="#333333"></path>
                        <path d="M182.564972,0.282718768 C182.564972,0.282718768 185.728814,11.0331238 178.508475,26.5074912 C178.508475,26.5074912 168.759887,47.3302205 131.898305,73.6595304 C131.898305,73.6595304 120.276836,82.9379352 118.658192,87.2550492 C118.658192,87.2550492 102.649718,124.148292 99.5903955,126.504622 C99.5903955,126.504622 94.5564972,106.340197 84.5621469,95.8694999 L76.920904,103.907582 L71.2711864,98.0026289 L104.152542,72.9277683 L87.4067797,92.594935 C87.4067797,92.594935 93.3926554,101.373255 93.6214689,102.308442 C93.6214689,102.308442 159.827684,48.4434031 153.115819,26.7024394 C153.754237,25.2247885 182.564972,0.282718768 182.564972,0.282718768 Z" id="路径" fill="#333333"></path>
                        <path d="M9.9475983e-14,166 C12.0564972,148.742845 21.0847458,136.786022 31.6666667,124.467555 C35.4237288,120.09676 58.3757062,92.628839 67.6723164,102.932841 C74.1949153,110.162877 63.2627119,122.145128 44.5847458,136.226605 C32.519774,145.318538 18.9265537,155.673395 9.9475983e-14,166 Z" id="路径" fill="#EE5B38"></path>
                        <path d="M32.5084746,135.104946 C38.6299435,126.36053 43.2062147,120.31431 48.559322,114.104221 C50.4576271,111.903284 62.0734463,98.0478342 66.6384181,103.537463 C69.8361582,107.388396 64.3107345,113.42614 54.9180791,120.407547 C48.8305085,124.922434 42,130.064546 32.5084746,135.104946 Z" id="路径" fill="#FBB03B"></path>
                    </g>
                </g>
            </g>
        </g>
    </g>
</svg>